<?xml version="1.0" encoding="UTF-8" standalone="no"?>
<svg
   version="1.1"
   id="Layer_1"
   x="0px"
   y="0px"
   viewBox="0 0 101.5 122.88"
   style="enable-background:new 0 0 101.5 122.88"
   xml:space="preserve"
   sodipodi:docname="favicon.svg"
   inkscape:version="1.2 (dc2aedaf03, 2022-05-15)"
   xmlns:inkscape="http://www.inkscape.org/namespaces/inkscape"
   xmlns:sodipodi="http://sodipodi.sourceforge.net/DTD/sodipodi-0.dtd"
   xmlns="http://www.w3.org/2000/svg"
   xmlns:svg="http://www.w3.org/2000/svg"><defs
     id="defs50" /><sodipodi:namedview
     id="namedview48"
     pagecolor="#505050"
     bordercolor="#eeeeee"
     borderopacity="1"
     inkscape:showpageshadow="0"
     inkscape:pageopacity="0"
     inkscape:pagecheckerboard="0"
     inkscape:deskcolor="#505050"
     showgrid="false"
     inkscape:zoom="7.0882163"
     inkscape:cx="17.282204"
     inkscape:cy="72.796876"
     inkscape:window-width="1876"
     inkscape:window-height="1001"
     inkscape:window-x="22"
     inkscape:window-y="57"
     inkscape:window-maximized="0"
     inkscape:current-layer="g45" /><g
     id="g45"><path
       d="M56.83,21.74c11.58,1.38,21.96,6.67,29.8,14.5c9.18,9.18,14.86,21.87,14.86,35.88c0,14.01-5.68,26.7-14.86,35.89 s-21.87,14.87-35.89,14.87c-14.01,0-26.7-5.68-35.88-14.87C5.68,98.83,0,86.14,0,72.13c0-14.01,5.68-26.7,14.86-35.88 c8.41-8.41,19.77-13.89,32.38-14.75v-8.51c0-0.13,0.01-0.26,0.02-0.38l-9.51,0c-1.56,0-2.83-1.28-2.83-2.83V2.83 C34.92,1.28,36.2,0,37.76,0h28.57c1.56,0,2.84,1.28,2.84,2.83v6.94c0,1.56-1.28,2.83-2.84,2.83h-9.51 c0.01,0.13,0.02,0.25,0.02,0.38V21.74L56.83,21.74L56.83,21.74z M54.82,64.55c2.7,1.45,4.53,4.3,4.53,7.58 c0,4.75-3.85,8.61-8.61,8.61c-4.75,0-8.61-3.85-8.61-8.61c0-3.28,1.84-6.13,4.53-7.58l0-19.72c0-2.25,1.82-4.08,4.07-4.08 c2.25,0,4.08,1.82,4.08,4.08L54.82,64.55L54.82,64.55L54.82,64.55z M96.33,37.07c1.97-4.7,1.74-9.63-1.08-12.92 c-3.38-3.96-9.5-4.41-15.17-1.63C86.08,26.65,91.54,31.45,96.33,37.07L96.33,37.07L96.33,37.07z M5.17,37.07 c-1.97-4.7-1.74-9.63,1.08-12.92c3.38-3.96,9.5-4.41,15.18-1.63C15.41,26.65,9.95,31.45,5.17,37.07L5.17,37.07L5.17,37.07z M80.87,42.01c-7.71-7.71-18.36-12.48-30.12-12.48c-11.76,0-22.41,4.77-30.12,12.48C12.92,49.72,8.15,60.37,8.15,72.13 c0,11.76,4.77,22.42,12.48,30.12s18.36,12.48,30.12,12.48c11.77,0,22.42-4.77,30.12-12.48s12.48-18.36,12.48-30.13 C93.35,60.37,88.58,49.72,80.87,42.01L80.87,42.01L80.87,42.01z"
       id="path43" /><path
       style="fill:#c0cbbe;stroke-width:0.141079;fill-opacity:1"
       d="M 48.249092,122.72861 C 35.671558,122.13687 23.949574,116.92672 14.951424,107.92857 7.6024809,100.57963 2.7860263,91.452796 0.92247933,81.344735 0.35256694,78.253475 0.13078579,75.677643 0.13184031,72.162019 0.13334122,67.158116 0.55324282,63.812463 1.760827,59.182731 5.927451,43.208402 18.064162,30.001211 33.724735,24.39955 c 3.537788,-1.265438 7.500439,-2.180919 11.318934,-2.614983 l 2.217868,-0.252115 v -4.483177 -4.483178 l -5.114121,-0.04029 c -4.870403,-0.03837 -5.141014,-0.05434 -5.678439,-0.335016 -0.310374,-0.162098 -0.754773,-0.5642 -0.987554,-0.89356 l -0.423238,-0.598837 -0.04339,-4.1084023 c -0.03712,-3.5148462 -0.01045,-4.1946491 0.184593,-4.70537 0.32172,-0.8424124 1.138637,-1.5358668 2.036037,-1.72832444 1.018949,-0.21852536 28.623029,-0.21930572 29.641709,-8.3801e-4 0.913872,0.19599042 1.865515,1.05456845 2.09508,1.89019235 0.202251,0.7362047 0.208074,7.7094253 0.007,8.4333394 -0.192587,0.693504 -0.901468,1.490838 -1.612717,1.813952 -0.512803,0.232962 -1.035918,0.257202 -5.611037,0.260012 l -5.045509,0.0031 0.0372,4.606035 0.0372,4.606036 2.375758,0.398162 c 19.667375,3.296126 35.644856,17.956763 40.648832,37.298607 2.042899,7.896409 2.120009,16.463261 0.219749,24.414683 -2.47977,10.376296 -8.206218,19.734592 -16.368748,26.750192 -8.210774,7.05707 -19.332278,11.58241 -29.592028,12.04096 -0.911361,0.0407 -2.101418,0.0936 -2.644573,0.11742 -0.543155,0.0238 -1.971582,-0.003 -3.174282,-0.0595 z m 7.688817,-8.25618 c 17.730973,-2.17924 32.155097,-15.088215 36.320633,-32.505405 0.843227,-3.525758 1.049001,-5.440098 1.053941,-9.805006 0.0048,-4.224418 -0.118381,-5.523624 -0.855416,-9.023565 C 90.216125,52.496946 83.653052,42.810439 74.560366,36.72453 69.03999,33.029637 63.283738,30.844548 56.361147,29.816058 53.981483,29.462511 47.657854,29.460598 45.145349,29.812658 35.431446,31.173827 26.896164,35.491799 20.09723,42.484423 10.77354,52.073733 6.5629955,65.347475 8.6021119,78.722789 10.644042,92.116558 19.174215,103.8991 31.319586,110.10194 c 5.453664,2.78527 10.496668,4.14286 17.282204,4.65241 1.281446,0.0962 5.614127,-0.0703 7.336119,-0.28192 z"
       id="path1243" /><path
       style="fill:#c0cbbe;fill-opacity:1;stroke-width:0.141079"
       d="M 95.510629,36.009853 C 94.262243,34.502884 89.816652,30.111965 87.751272,28.345924 85.614129,26.518519 83.360164,24.745612 81.482273,23.4149 l -1.260687,-0.893348 0.62583,-0.267667 c 2.463036,-1.053433 4.402688,-1.430023 6.891214,-1.337953 3.09685,0.114577 5.039972,0.900997 6.954244,2.814521 1.885323,1.884586 2.792864,4.252544 2.792864,7.287144 0,0.850785 -0.09016,2.012737 -0.200356,2.582116 -0.175126,0.904874 -0.889715,3.377213 -0.969686,3.354921 -0.01602,-0.0045 -0.378302,-0.429617 -0.805067,-0.944781 z"
       id="path1383" /><path
       style="fill:#c0cbbe;fill-opacity:1;stroke-width:0.141079"
       d="m 49.285557,80.542864 c -3.035403,-0.507121 -5.760328,-2.932559 -6.721205,-5.982498 -0.455105,-1.444558 -0.419295,-3.690013 0.08169,-5.12229 0.617241,-1.764647 1.76471,-3.271454 3.345783,-4.393536 l 0.634857,-0.450555 0.07054,-10.394444 0.07054,-10.394444 0.375371,-0.705396 c 0.773584,-1.453721 2.05307,-2.239163 3.645387,-2.237806 1.148172,9.79e-4 2.111957,0.458361 2.9342,1.392478 1.055299,1.198883 1.016018,0.729443 1.016018,12.14209 v 10.188404 l 0.699347,0.448771 c 1.653538,1.061072 3.097336,3.144897 3.619298,5.223714 0.299222,1.191709 0.202388,3.228763 -0.215988,4.543689 -0.374966,1.178486 -1.485765,2.860044 -2.451937,3.711809 -1.874901,1.652888 -4.63693,2.442167 -7.103899,2.030014 z"
       id="path1385" /><path
       style="fill:#c0cbbe;fill-opacity:1;stroke-width:0.141079"
       d="M 4.7586343,35.728311 C 4.1678739,33.922064 4.0301963,33.035564 4.0301178,31.037428 4.03003,28.803669 4.2287659,27.887419 5.1011275,26.099655 c 0.4621881,-0.94718 0.8252042,-1.438463 1.7274999,-2.33789 1.2819432,-1.277868 2.173679,-1.837518 3.8228536,-2.399208 1.487035,-0.506468 4.288467,-0.637131 6.150213,-0.286856 1.696791,0.31924 4.375306,1.229588 4.351887,1.479077 -0.0046,0.04864 -0.8071,0.659807 -1.783407,1.358149 -2.235589,1.599091 -4.432365,3.361735 -6.602505,5.2977 -1.776609,1.5849 -6.1542972,5.985831 -6.9744297,7.011462 -0.2636988,0.329772 -0.5239015,0.599586 -0.5782282,0.599586 -0.054327,0 -0.2596962,-0.492013 -0.4563768,-1.093364 z"
       id="path1387" /></g></svg>
