<?xml version="1.0" encoding="UTF-8" standalone="no"?>
<svg
   version="1.1"
   id="Layer_1"
   x="0px"
   y="0px"
   viewBox="0 0 122.88 122.88"
   style="enable-background:new 0 0 122.88 122.88"
   xml:space="preserve"
   sodipodi:docname="favicon.svg"
   inkscape:version="1.2.1 (9c6d41e410, 2022-07-14)"
   xmlns:inkscape="http://www.inkscape.org/namespaces/inkscape"
   xmlns:sodipodi="http://sodipodi.sourceforge.net/DTD/sodipodi-0.dtd"
   xmlns="http://www.w3.org/2000/svg"
   xmlns:svg="http://www.w3.org/2000/svg"><defs
     id="defs1364" /><sodipodi:namedview
     id="namedview1362"
     pagecolor="#505050"
     bordercolor="#eeeeee"
     borderopacity="1"
     inkscape:showpageshadow="0"
     inkscape:pageopacity="0"
     inkscape:pagecheckerboard="0"
     inkscape:deskcolor="#505050"
     showgrid="false"
     inkscape:zoom="7.0882163"
     inkscape:cx="28.004224"
     inkscape:cy="38.937864"
     inkscape:window-width="1914"
     inkscape:window-height="1039"
     inkscape:window-x="0"
     inkscape:window-y="35"
     inkscape:window-maximized="1"
     inkscape:current-layer="g1359" /><style
     type="text/css"
     id="style1355">.st0{fill-rule:evenodd;clip-rule:evenodd;}</style><g
     id="g1359"><path
       class="st0"
       d="M61.44,0c33.93,0,61.44,27.51,61.44,61.44c0,33.93-27.51,61.44-61.44,61.44C27.51,122.88,0,95.37,0,61.44 C0,27.51,27.51,0,61.44,0L61.44,0z M52.92,30.52h7.51c1.37,0,2.5,1.13,2.5,2.5v28.94h26.41c1.38,0,2.5,1.13,2.5,2.5v7.51 c0,1.38-1.13,2.5-2.5,2.5H50.41V33.02C50.41,31.64,51.54,30.52,52.92,30.52L52.92,30.52z M61.44,13.95 c26.23,0,47.49,21.26,47.49,47.49c0,26.23-21.26,47.49-47.49,47.49c-26.23,0-47.49-21.26-47.49-47.49 C13.95,35.22,35.21,13.95,61.44,13.95L61.44,13.95z"
       id="path1357"
       style="stroke-width:0;stroke-dasharray:none;fill:#eeecec;fill-opacity:1" /></g></svg>
