<?xml version="1.0" encoding="UTF-8" standalone="no"?>
<svg
   id="Layer_1"
   data-name="Layer 1"
   viewBox="0 0 122.88 122.88"
   version="1.1"
   sodipodi:docname="settings.svg"
   inkscape:version="1.2 (dc2aedaf03, 2022-05-15)"
   xmlns:inkscape="http://www.inkscape.org/namespaces/inkscape"
   xmlns:sodipodi="http://sodipodi.sourceforge.net/DTD/sodipodi-0.dtd"
   xmlns="http://www.w3.org/2000/svg"
   xmlns:svg="http://www.w3.org/2000/svg"
   xmlns:rdf="http://www.w3.org/1999/02/22-rdf-syntax-ns#"
   xmlns:cc="http://creativecommons.org/ns#"
   xmlns:dc="http://purl.org/dc/elements/1.1/">
  <sodipodi:namedview
     id="namedview63"
     pagecolor="#505050"
     bordercolor="#eeeeee"
     borderopacity="1"
     inkscape:showpageshadow="0"
     inkscape:pageopacity="0"
     inkscape:pagecheckerboard="0"
     inkscape:deskcolor="#505050"
     showgrid="false"
     inkscape:zoom="7.0882163"
     inkscape:cx="28.004224"
     inkscape:cy="61.510538"
     inkscape:window-width="1914"
     inkscape:window-height="1039"
     inkscape:window-x="1920"
     inkscape:window-y="35"
     inkscape:window-maximized="1"
     inkscape:current-layer="Layer_1" />
  <defs
     id="defs56">
    <style
       id="style54">.cls-1{fill-rule:evenodd;}</style>
  </defs>
  <title
     id="title58">gear</title>
  <path
     class="cls-1"
     d="M73.48,15.84A46.87,46.87,0,0,1,84.87,21L91,14.84a7.6,7.6,0,0,1,10.72,0L108,21.15a7.6,7.6,0,0,1,0,10.72l-6.6,6.6a46.6,46.6,0,0,1,4.34,10.93h9.52A7.6,7.6,0,0,1,122.88,57V65.9a7.6,7.6,0,0,1-7.58,7.58h-9.61a46.83,46.83,0,0,1-4.37,10.81L108,91a7.6,7.6,0,0,1,0,10.72L101.73,108A7.61,7.61,0,0,1,91,108l-6.34-6.35a47.22,47.22,0,0,1-11.19,5v8.59a7.6,7.6,0,0,1-7.58,7.58H57a7.6,7.6,0,0,1-7.58-7.58v-7.76a47.39,47.39,0,0,1-12.35-4.68L31.87,108a7.62,7.62,0,0,1-10.72,0l-6.31-6.31a7.61,7.61,0,0,1,0-10.72l4.72-4.72A47.38,47.38,0,0,1,14,73.48H7.58A7.6,7.6,0,0,1,0,65.9V57A7.6,7.6,0,0,1,7.58,49.4h6.35a47.2,47.2,0,0,1,5.51-12.94l-4.6-4.59a7.62,7.62,0,0,1,0-10.72l6.31-6.31a7.6,7.6,0,0,1,10.72,0l5,5A46.6,46.6,0,0,1,49.4,15V7.58A7.6,7.6,0,0,1,57,0H65.9a7.6,7.6,0,0,1,7.58,7.58v8.26ZM59.86,36.68a24.6,24.6,0,1,1-24.6,24.59,24.59,24.59,0,0,1,24.6-24.59Z"
     id="path60" />
  <path
     style="fill:#eeecec;stroke-width:0.141079;fill-opacity:1"
     d="m 55.264575,122.53478 c -1.958504,-0.47429 -4.061593,-2.1167 -4.887135,-3.81662 -0.826628,-1.70216 -0.834434,-1.76072 -0.89552,-6.7171 l -0.0567,-4.60092 -1.255873,-0.308 c -2.893882,-0.70971 -6.584842,-2.09687 -9.513638,-3.57546 l -1.551871,-0.78346 -2.89337,2.85988 c -2.952516,2.91834 -3.71978,3.5317 -5.032056,4.02268 -2.019104,0.75545 -3.945089,0.6568 -5.970877,-0.30583 -1.162122,-0.55222 -1.321502,-0.69248 -5.158244,-4.53934 -4.177522,-4.18854 -4.530263,-4.637 -5.056543,-6.428732 -0.275014,-0.936292 -0.292172,-2.919741 -0.03364,-3.889343 0.450795,-1.690697 0.86109,-2.255244 3.844953,-5.29047 l 2.84318,-2.892124 -0.704397,-1.199174 c -1.647933,-2.805443 -3.373771,-6.737188 -4.41228,-10.051894 l -0.519358,-1.657681 -3.760781,-0.0017 c -2.8079995,-0.0013 -3.952681,-0.05275 -4.5182406,-0.20328 -2.6465723,-0.70441 -4.81809369,-2.935396 -5.44474395,-5.59384 -0.30960515,-1.313442 -0.30960515,-10.931357 0,-12.244799 0.62665026,-2.658444 2.79817165,-4.88943 5.44474395,-5.59384 0.5655358,-0.150523 1.7101104,-0.20203 4.5172576,-0.20328 l 3.759798,-0.0017 0.175694,-0.740666 c 0.741797,-3.127161 3.054175,-8.537122 5.047881,-11.809858 L 19.53025,36.48003 16.815242,33.723459 c -2.842116,-2.885622 -3.336012,-3.559543 -3.822498,-5.215793 -0.293708,-0.999935 -0.29251,-2.976119 0.0024,-3.969546 0.543429,-1.830544 0.867989,-2.250355 4.832477,-6.250684 2.111397,-2.130484 4.116549,-4.027157 4.5771,-4.329479 1.298902,-0.852645 2.454251,-1.185091 4.118165,-1.184985 1.559747,9.9e-5 2.41168,0.217165 3.738599,0.952568 0.514801,0.285311 1.753303,1.396965 3.680077,3.30316 l 2.904141,2.873125 2.104171,-1.045861 c 3.137863,-1.559649 6.250495,-2.729731 9.288565,-3.491701 l 1.209819,-0.303432 v -3.977525 c 0,-2.268697 0.06616,-4.3371665 0.153992,-4.8146402 0.489296,-2.6598688 2.635697,-5.0562104 5.271699,-5.88557068 0.955562,-0.30064621 1.205748,-0.31255551 6.566043,-0.31255551 5.360295,0 5.61048,0.01190934 6.566042,0.31255551 2.650563,0.83394158 4.779701,3.21100918 5.271699,5.88557068 0.09005,0.4895048 0.153992,2.6610209 0.153992,5.2294362 v 4.392322 l 0.811205,0.251973 c 2.54823,0.791519 7.325259,2.94743 9.555392,4.312422 0.50859,0.311291 0.968454,0.565984 1.021918,0.565984 0.05347,0 1.65536,-1.546124 3.559766,-3.43583 1.904406,-1.889708 3.753315,-3.603525 4.108687,-3.808483 2.23575,-1.289451 4.835458,-1.390291 7.183766,-0.278651 0.986361,0.466923 1.331171,0.774783 5.086081,4.54097 3.22558,3.235262 4.11734,4.21161 4.47649,4.901099 1.23537,2.371633 1.12498,5.359419 -0.28052,7.592353 -0.24814,0.394232 -2.06163,2.34378 -4.02996,4.332328 l -3.5788,3.615545 0.76845,1.533847 c 1.34462,2.683909 2.77908,6.416436 3.43595,8.940507 l 0.1285,0.493777 5.63801,0.07054 c 5.38059,0.06732 5.67567,0.08477 6.46309,0.382169 2.39101,0.903068 4.24067,2.990252 4.81729,5.4359 0.30532,1.29495 0.30178,10.926232 -0.004,12.225524 -0.62665,2.658444 -2.79817,4.88943 -5.44474,5.59384 -0.5928,0.157779 -1.92355,0.201969 -6.12149,0.20328 l -5.36402,0.0017 -0.38902,1.304983 c -0.71608,2.402124 -1.71154,4.934644 -2.86607,7.291444 l -1.14493,2.337213 3.62066,3.668059 c 1.99135,2.017433 3.82651,3.995113 4.07812,4.394844 0.64975,1.032263 1.02787,2.206613 1.11518,3.463523 0.0976,1.404776 -0.13854,2.598721 -0.77558,3.921748 -0.46943,0.974938 -0.82068,1.369988 -4.46924,5.026388 -3.81046,3.81865 -4.005,3.99018 -5.158951,4.54862 -2.272621,1.09981 -4.314891,1.09562 -6.630723,-0.0136 -1.142977,-0.54746 -1.367993,-0.74173 -4.801611,-4.14562 l -3.602438,-3.57124 -1.123716,0.64846 c -2.529373,1.45964 -6.113647,3.05503 -8.847803,3.93823 l -1.234443,0.39875 -0.0025,4.59127 c -0.0027,5.13131 -0.09574,5.92409 -0.877848,7.48339 -0.939687,1.87346 -3.078972,3.50621 -5.157783,3.93654 -1.098242,0.22734 -11.155458,0.1864 -12.129077,-0.0494 z M 64.157433,85.574575 C 72.098656,84.085668 78.558861,79.188668 82.037622,72.02094 87.462689,60.842991 83.701359,47.379947 73.250183,40.56779 70.81741,38.982091 67.831446,37.768643 64.667836,37.080063 c -1.282544,-0.279153 -1.87596,-0.319358 -4.779709,-0.323826 -3.719223,-0.0057 -4.971668,0.17678 -7.900436,1.151225 -7.84909,2.611512 -14.007398,9.230676 -15.988718,17.18523 -0.632233,2.538279 -0.728887,3.39188 -0.718709,6.347307 0.0086,2.4883 0.05376,3.029886 0.382581,4.585074 0.205074,0.96992 0.570108,2.366604 0.811187,3.103743 0.599382,1.832718 2.062158,4.732746 3.202218,6.348565 1.369965,1.941663 4.381927,4.898633 6.297674,6.18269 3.338509,2.237685 7.226429,3.680256 11.233698,4.168146 1.137947,0.138546 5.757206,-0.03004 6.949811,-0.253642 z"
     id="path415" />
  <path
     style="fill:#eeecec;fill-opacity:1;stroke-width:0.141079"
     d="m 55.126798,122.37985 c -2.702771,-0.72779 -5.023697,-3.25174 -5.403135,-5.87578 -0.07076,-0.48931 -0.136223,-2.22285 -0.145484,-3.85232 -0.0093,-1.62946 -0.05815,-3.49853 -0.108646,-4.15348 l -0.09181,-1.19082 -1.199174,-0.3016 c -2.725585,-0.68551 -5.475558,-1.70174 -8.859104,-3.27381 l -2.298921,-1.06814 -2.638852,2.60312 c -2.941686,2.90185 -3.57679,3.44628 -4.646527,3.98317 -2.137634,1.07285 -4.426246,1.01512 -6.739236,-0.16999 -0.849783,-0.4354 -1.491331,-1.00883 -4.598683,-4.11039 -1.98612,-1.98242 -3.905882,-4.00724 -4.266138,-4.49961 -0.898341,-1.227781 -1.222343,-2.334807 -1.222343,-4.176409 0,-2.689717 0.473357,-3.510975 4.213562,-7.310382 l 2.623751,-2.66528 -0.533907,-0.94111 C 17.425842,82.228323 15.527204,77.928023 14.58505,74.896906 L 14.119589,73.399415 10.171228,73.296656 C 5.687067,73.179952 5.0975547,73.070755 3.6180902,72.082807 1.9810132,70.98961 0.73875807,69.198733 0.34577228,67.365326 c -0.25480405,-1.188745 -0.25480405,-10.66191 0,-11.850654 C 0.74042736,53.673476 2.0425704,51.805936 3.6622013,50.758232 5.114227,49.818948 5.8334382,49.6874 10.211323,49.560358 l 3.862759,-0.112093 0.462819,-1.551871 c 1.035917,-3.473517 2.504165,-6.857229 4.661564,-10.742999 L 19.601751,36.427022 17.0624,33.829123 c -1.396644,-1.428845 -2.770731,-2.946486 -3.053527,-3.372537 -0.801053,-1.206837 -1.100125,-2.270972 -1.100125,-3.914382 0,-1.675752 0.310379,-2.822883 1.074032,-3.969529 0.284221,-0.426765 2.237991,-2.493955 4.341712,-4.593757 3.405302,-3.398959 3.936966,-3.873773 4.845994,-4.327815 1.318837,-0.658733 2.346249,-0.865899 3.846184,-0.775539 1.338926,0.08066 2.411007,0.428127 3.455421,1.119919 0.371069,0.245785 1.952196,1.697455 3.513616,3.225933 l 2.838945,2.77905 0.986066,-0.499803 c 3.323094,-1.684363 6.830935,-3.071799 9.848584,-3.895353 l 1.718424,-0.468979 0.153662,-4.570232 C 49.70373,5.4402317 49.743904,5.2304932 50.878933,3.5307736 51.9406,1.9409135 53.898462,0.60486364 55.639737,0.28198771 c 0.988656,-0.18332151 10.611867,-0.18332151 11.600523,0 2.816045,0.52216485 5.50322,3.27968179 5.919648,6.07460159 0.07449,0.4999447 0.181993,2.8683086 0.238899,5.2630307 l 0.103465,4.35404 1.481331,0.528641 c 2.78667,0.994475 5.845839,2.375009 8.12736,3.667697 0.825891,0.467943 1.588542,0.850805 1.694777,0.850805 0.106237,0 1.732983,-1.499551 3.614993,-3.332333 1.882011,-1.832784 3.675779,-3.505802 3.986154,-3.717817 0.922048,-0.629847 2.140225,-1.015796 3.45644,-1.095089 1.495712,-0.09011 2.523288,0.115994 3.846184,0.771426 0.911929,0.451815 1.414019,0.899273 4.697949,4.186736 2.0223,2.02447 3.94884,4.043874 4.28121,4.487565 1.49506,1.995834 1.71467,5.203574 0.51794,7.565218 -0.37575,0.741504 -2.88771,3.500494 -5.97555,6.563193 l -1.97188,1.955833 0.8907,1.874493 c 1.33933,2.81865 2.76877,6.555631 3.30459,8.63919 l 0.1542,0.599587 2.49872,0.01233 c 1.37429,0.0068 3.99699,0.05592 5.82822,0.109181 l 3.3295,0.09685 1.11449,0.549102 c 1.39538,0.687491 2.7863,2.024297 3.42716,3.293832 0.85875,1.701179 0.90542,2.102091 0.90662,7.789356 8.5e-4,3.657311 -0.0513,5.394665 -0.17975,5.995867 -0.54083,2.531423 -2.66011,4.859784 -5.06825,5.568254 -0.81875,0.240877 -1.60832,0.288544 -6.4015,0.38646 l -5.46755,0.111698 -0.8336,2.468886 c -0.76813,2.274975 -1.32775,3.622996 -2.97626,7.169299 l -0.61105,1.314511 2.82123,2.847326 c 4.87207,4.917121 5.29581,5.449952 5.76416,7.248052 0.27544,1.0575 0.26847,2.898245 -0.0146,3.862072 -0.51604,1.756869 -0.90471,2.250959 -4.99355,6.347859 -3.3792,3.38586 -4.01035,3.95536 -4.881542,4.40472 -2.442426,1.25978 -4.432358,1.26255 -6.968779,0.01 -0.946194,-0.46736 -1.426039,-0.88741 -4.597399,-4.02448 -1.947516,-1.92645 -3.616012,-3.50264 -3.707767,-3.50264 -0.09176,0 -0.410147,0.1536 -0.707534,0.34133 -0.802538,0.50662 -4.346084,2.2625 -5.764016,2.85616 -0.680576,0.28494 -1.999238,0.78562 -2.930361,1.11261 l -1.69295,0.59453 -0.08924,1.39209 c -0.04908,0.76565 -0.0978,2.88401 -0.10826,4.70745 -0.02064,3.59844 -0.162513,4.68823 -0.764588,5.87328 -0.879052,1.73022 -2.723034,3.28973 -4.561076,3.85744 -0.86623,0.26755 -1.284769,0.28531 -6.518702,0.27662 -4.352658,-0.007 -5.757275,-0.0535 -6.333609,-0.2087 z M 64.805662,85.499846 C 78.302375,82.733536 86.898745,69.518159 83.989295,56.008449 82.819538,50.576817 79.765616,45.582462 75.507761,42.137829 72.545317,39.741194 69.630443,38.298141 65.531296,37.198828 l -1.622411,-0.435101 -3.879679,-0.0063 c -4.252062,-0.0069 -4.916389,0.07499 -7.611055,0.938165 -4.116888,1.318757 -7.418748,3.391954 -10.458893,6.567008 -3.171529,3.312269 -5.159556,7.054435 -6.28621,11.832864 -0.377886,1.602711 -0.395246,1.831644 -0.394551,5.20345 7.06e-4,3.371867 0.01797,3.598333 0.392754,5.149392 0.790035,3.269581 2.00597,6.124069 3.725947,8.746911 1.064433,1.623186 4.874558,5.432151 6.52535,6.523365 3.022431,1.9979 6.18495,3.270244 9.930199,3.995116 1.581293,0.30605 7.054126,0.175321 8.952915,-0.213858 z"
     id="path1455" />
  <path
     style="fill:#eeecec;fill-opacity:1;stroke-width:0.141079"
     d="m 55.282603,122.45119 c -1.266248,-0.25061 -3.265517,-1.58218 -4.173392,-2.77959 -0.721794,-0.95198 -1.235143,-2.12784 -1.386833,-3.17662 -0.07005,-0.48431 -0.135359,-2.18202 -0.145135,-3.77269 -0.0098,-1.59066 -0.05867,-3.45776 -0.108647,-4.1491 l -0.09087,-1.25697 -1.481332,-0.38861 c -2.910202,-0.76345 -5.761917,-1.83578 -9.063451,-3.40814 l -1.797873,-0.85623 -2.857741,2.80808 c -3.065563,3.01229 -3.911617,3.6705 -5.334242,4.14988 -1.944143,0.65512 -3.882315,0.48044 -5.831193,-0.52555 -0.866397,-0.44722 -1.496914,-1.01081 -4.613914,-4.12412 -1.985709,-1.98336 -3.905471,-4.00896 -4.266138,-4.50133 -0.893158,-1.219301 -1.223094,-2.336496 -1.223094,-4.141513 0,-2.717623 0.476069,-3.548625 4.200245,-7.331749 l 2.639452,-2.68123 -0.462861,-0.79882 C 17.613266,82.63075 15.561774,78.000162 14.581029,74.897857 l -0.473107,-1.49654 -3.942528,-0.10371 C 6.9025523,73.211777 6.0738563,73.147872 5.3585251,72.926928 2.9582035,72.185545 0.87594865,69.876235 0.34374774,67.365326 c -0.25120667,-1.185187 -0.25120667,-10.665468 0,-11.850654 C 0.8833194,52.968987 2.990981,50.658406 5.4256915,49.943453 6.1804594,49.721816 7.051543,49.652034 10.20781,49.560358 l 3.859245,-0.112093 0.471634,-1.626621 c 0.823609,-2.840558 2.821236,-7.446244 4.536202,-10.458573 l 0.53512,-0.939936 -2.409019,-2.445965 c -3.789064,-3.847174 -4.292244,-4.72104 -4.292244,-7.454277 0,-1.655717 0.31376,-2.809067 1.074625,-3.950218 0.284547,-0.426765 2.238316,-2.494639 4.34171,-4.595278 3.411532,-3.407059 3.934572,-3.874228 4.845403,-4.327814 1.320327,-0.657512 2.347807,-0.864285 3.846184,-0.774019 1.343974,0.08096 2.411193,0.428251 3.468827,1.128799 0.378444,0.25067 1.934726,1.677973 3.458405,3.171785 1.52368,1.493811 2.84327,2.716021 2.932422,2.716021 0.08915,0 0.792993,-0.316598 1.56409,-0.703553 3.106982,-1.559157 6.404315,-2.830111 9.498089,-3.661034 l 1.439223,-0.386546 0.153662,-4.572584 c 0.171428,-5.1013007 0.206753,-5.290083 1.308958,-6.9954084 1.015344,-1.5709357 3.051055,-2.96687078 4.799391,-3.29105589 0.988656,-0.18332151 10.611867,-0.18332151 11.600523,0 1.748336,0.32418511 3.784047,1.72012019 4.799391,3.29105589 1.121382,1.734996 1.13996,1.8400838 1.310193,7.4116104 l 0.152428,4.988788 1.481331,0.528751 c 2.854285,1.018813 5.321867,2.124844 7.909925,3.545426 0.97514,0.53525 1.839431,0.973184 1.920649,0.973184 0.08122,0 1.695833,-1.498844 3.588031,-3.330764 1.892199,-1.831921 3.694304,-3.504939 4.004679,-3.717816 0.919263,-0.630501 2.138198,-1.017244 3.45644,-1.096659 1.495712,-0.09011 2.523288,0.115994 3.846184,0.771426 0.911929,0.451815 1.414019,0.899273 4.697949,4.186736 2.0223,2.02447 3.94884,4.043874 4.28121,4.487565 1.49506,1.995834 1.71467,5.203574 0.51794,7.565218 -0.37575,0.741504 -2.88771,3.500494 -5.97555,6.563193 l -1.97188,1.955833 0.8907,1.874493 c 1.1317,2.381698 2.28651,5.298827 2.97321,7.510556 l 0.53658,1.728221 2.54376,0.01192 c 1.39906,0.0066 4.0109,0.05599 5.80407,0.109853 l 3.26033,0.09792 1.11313,0.546568 c 2.07201,1.017393 3.68871,3.053471 4.15243,5.229593 0.25301,1.187312 0.25292,10.663982 -1.1e-4,11.850655 -0.54289,2.546029 -2.64971,4.857209 -5.07897,5.571619 -0.80477,0.23667 -1.62291,0.285696 -6.39303,0.383095 l -5.47015,0.111692 -0.75522,2.257267 c -0.8911,2.663395 -1.16886,3.34883 -2.58467,6.378279 l -1.06882,2.286983 3.60121,3.667624 c 3.72784,3.796573 4.26592,4.446694 4.7847,5.780941 0.42873,1.102626 0.52527,3.328709 0.19411,4.47584 -0.52366,1.813956 -0.89133,2.284466 -5.00982,6.411076 -3.3792,3.38587 -4.01035,3.95536 -4.881542,4.40472 -2.443089,1.26013 -4.604047,1.2556 -7.040954,-0.0147 -0.828736,-0.43202 -1.557612,-1.0767 -4.532242,-4.00874 -1.949577,-1.92167 -3.600204,-3.49318 -3.668059,-3.49224 -0.06786,9.9e-4 -0.409058,0.16757 -0.758229,0.37031 -2.294447,1.33222 -5.843804,2.94327 -8.676372,3.93821 l -1.69295,0.59467 -0.0886,1.95628 c -0.04873,1.07596 -0.09744,3.19426 -0.108258,4.70733 -0.01271,1.77884 -0.09119,3.08857 -0.222049,3.70613 -0.539106,2.5441 -2.647143,4.74625 -5.285141,5.52111 -0.649026,0.19062 -1.620405,0.22271 -6.348564,0.2096 -3.070262,-0.008 -5.845439,-0.0675 -6.16706,-0.13119 z M 62.709712,85.777937 C 66.335298,85.476613 70.36394,84.001034 73.71389,81.747412 81.207368,76.706303 85.410111,67.671706 84.426478,58.718664 83.797166,52.990656 81.315732,47.779157 77.32223,43.798347 74.046451,40.532979 70.447939,38.518658 65.531296,37.198196 l -1.622411,-0.43573 -3.879679,-0.0045 c -4.367392,-0.0051 -4.999815,0.07896 -7.935751,1.054903 -3.966703,1.318577 -7.186801,3.370167 -10.148649,6.465912 -1.780781,1.861285 -3.034408,3.658968 -4.195293,6.015993 -1.740691,3.534242 -2.379289,6.069685 -2.505133,9.946197 -0.09798,3.018242 0.05444,4.657718 0.656538,7.061626 0.659551,2.633311 1.945752,5.531655 3.492317,7.86964 0.900066,1.360653 3.682735,4.298205 5.325942,5.622386 2.937041,2.366817 6.975019,4.147831 11.126265,4.907414 1.218848,0.223022 4.63922,0.260858 6.86427,0.07593 z"
     id="path1457" />
  <metadata
     id="metadata1475">
    <rdf:RDF>
      <cc:Work
         rdf:about="">
        <dc:title>gear</dc:title>
      </cc:Work>
    </rdf:RDF>
  </metadata>
</svg>
